<svg width="100" height="100" viewBox="0 0 100 100" fill="none" xmlns="http://www.w3.org/2000/svg">
<g clip-path="url(#clip0_188_2)">
<path d="M63.484 22.4896H36.5384C35.9244 22.4904 35.3357 22.7406 34.9015 23.1854C34.4673 23.6303 34.223 24.2333 34.2223 24.8624V86.2142L33.9135 86.3107L27.3033 88.3845C26.99 88.4824 26.6516 88.4489 26.3624 88.2914C26.0732 88.1339 25.8568 87.8653 25.7608 87.5445L6.09846 21.7477C6.00277 21.4268 6.03538 21.0801 6.18913 20.7838C6.34287 20.4874 6.60517 20.2658 6.91837 20.1675L17.1047 16.9722L46.6351 7.71205L56.8214 4.51673C56.9764 4.46785 57.1393 4.45077 57.3008 4.46647C57.4622 4.48216 57.6191 4.53032 57.7624 4.60819C57.9056 4.68606 58.0325 4.79212 58.1358 4.92028C58.239 5.04844 58.3165 5.1962 58.3639 5.3551L63.3899 22.1733L63.484 22.4896Z" fill="#F2F2F2"/>
<path d="M69.364 22.1735L63.3066 1.90374C63.2058 1.56601 63.0411 1.25193 62.8218 0.979455C62.6025 0.706978 62.3329 0.481445 62.0285 0.31574C61.7241 0.150035 61.3907 0.0474058 61.0476 0.0137207C60.7044 -0.0199645 60.3582 0.0159545 60.0286 0.119421L45.7072 4.61028L16.1784 13.872L1.85705 18.3644C1.19176 18.5737 0.634703 19.0449 0.308153 19.6745C-0.018398 20.3041 -0.0877619 21.0407 0.115289 21.7227L20.8183 90.9963C20.9832 91.5468 21.3161 92.0287 21.7679 92.3711C22.2198 92.7136 22.7669 92.8987 23.329 92.8993C23.5891 92.8994 23.8478 92.8594 24.0964 92.7807L33.9136 89.7024L34.2224 89.6043V89.2737L33.9136 89.3702L24.0053 92.4785C23.418 92.6619 22.7838 92.5992 22.2416 92.3041C21.6994 92.0091 21.2936 91.5058 21.1132 90.9046L0.411815 21.6293C0.322427 21.3315 0.291273 21.0184 0.320136 20.7082C0.348998 20.398 0.437309 20.0966 0.580015 19.8214C0.722722 19.5462 0.917022 19.3026 1.15178 19.1044C1.38654 18.9062 1.65716 18.7574 1.94813 18.6665L16.2694 14.1741L45.7984 4.91399L60.1197 0.421557C60.3404 0.352556 60.5699 0.317375 60.8006 0.317154C61.2958 0.318293 61.7776 0.481849 62.1755 0.783865C62.5734 1.08588 62.8665 1.51049 63.0118 1.99549L69.0414 22.1735L69.1371 22.4899H69.4583L69.364 22.1735Z" fill="#3F3D56"/>
<path d="M18.9429 20.2192C18.6453 20.219 18.3556 20.1211 18.1163 19.9398C17.877 19.7586 17.7007 19.5035 17.6132 19.2121L15.6244 12.557C15.5709 12.3783 15.5524 12.1904 15.5698 12.0043C15.5872 11.8182 15.6403 11.6375 15.7259 11.4723C15.8115 11.3072 15.928 11.161 16.0688 11.0421C16.2096 10.9231 16.3719 10.8337 16.5464 10.779L43.7127 2.25858C44.0651 2.14841 44.4458 2.18599 44.7712 2.36306C45.0966 2.54013 45.3402 2.84223 45.4484 3.20305L47.4372 9.85823C47.5447 10.2193 47.508 10.6092 47.3351 10.9426C47.1623 11.2759 46.8675 11.5254 46.5153 11.6363L19.3489 20.1567C19.2173 20.1981 19.0805 20.2192 18.9429 20.2192Z" fill="#3E65F2"/>
<path d="M29.3611 7.11106C31.0666 7.11106 32.4493 5.69463 32.4493 3.94738C32.4493 2.20012 31.0666 0.783691 29.3611 0.783691C27.6556 0.783691 26.2729 2.20012 26.2729 3.94738C26.2729 5.69463 27.6556 7.11106 29.3611 7.11106Z" fill="#3E65F2"/>
<path d="M29.3612 5.95078C30.4412 5.95078 31.3167 5.05385 31.3167 3.94744C31.3167 2.84102 30.4412 1.94409 29.3612 1.94409C28.2812 1.94409 27.4056 2.84102 27.4056 3.94744C27.4056 5.05385 28.2812 5.95078 29.3612 5.95078Z" fill="white"/>
<path d="M93.0517 92.0908H40.8619C40.5139 92.0904 40.1803 91.9486 39.9343 91.6966C39.6882 91.4445 39.5498 91.1027 39.5494 90.7463V26.6816C39.5498 26.3251 39.6882 25.9834 39.9343 25.7313C40.1803 25.4792 40.5139 25.3374 40.8619 25.337H93.0517C93.3997 25.3374 93.7333 25.4792 93.9793 25.7313C94.2253 25.9834 94.3638 26.3251 94.3642 26.6816V90.7463C94.3637 91.1027 94.2253 91.4445 93.9793 91.6965C93.7332 91.9486 93.3997 92.0904 93.0517 92.0908Z" fill="#E6E6E6"/>
<path d="M69.0413 22.1733H36.5385C35.8426 22.1743 35.1755 22.458 34.6835 22.9621C34.1914 23.4662 33.9146 24.1496 33.9136 24.8625V89.37L34.2224 89.2736V24.8625C34.2231 24.2334 34.4674 23.6303 34.9016 23.1855C35.3358 22.7407 35.9245 22.4905 36.5385 22.4897H69.1371L69.0413 22.1733ZM97.3751 22.1733H36.5385C35.8426 22.1743 35.1755 22.458 34.6835 22.9621C34.1914 23.4662 33.9146 24.1496 33.9136 24.8625V97.3109C33.9146 98.0238 34.1914 98.7072 34.6835 99.2113C35.1755 99.7154 35.8426 99.999 36.5385 100H97.3751C98.071 99.999 98.7381 99.7154 99.2302 99.2113C99.7222 98.7072 99.9991 98.0238 100 97.3109V24.8625C99.9991 24.1496 99.7222 23.4662 99.2302 22.9621C98.7381 22.458 98.071 22.1743 97.3751 22.1733ZM99.6912 97.3109C99.6905 97.94 99.4462 98.543 99.012 98.9879C98.5779 99.4327 97.9892 99.6829 97.3751 99.6837H36.5385C35.9245 99.6829 35.3358 99.4327 34.9016 98.9879C34.4674 98.543 34.2231 97.94 34.2224 97.3109V24.8625C34.2231 24.2334 34.4674 23.6303 34.9016 23.1855C35.3358 22.7407 35.9245 22.4905 36.5385 22.4897H97.3751C97.9892 22.4905 98.5779 22.7407 99.012 23.1855C99.4462 23.6303 99.6905 24.2334 99.6912 24.8625V97.3109Z" fill="#3F3D56"/>
<path d="M81.1623 29.1334H52.7512C52.3828 29.1329 52.0296 28.9828 51.7691 28.7159C51.5085 28.449 51.362 28.0871 51.3616 27.7097V20.7496C51.362 20.3721 51.5085 20.0103 51.7691 19.7434C52.0296 19.4765 52.3828 19.3264 52.7512 19.3259H81.1623C81.5307 19.3264 81.8839 19.4765 82.1444 19.7434C82.405 20.0103 82.5515 20.3721 82.5519 20.7496V27.7097C82.5515 28.0871 82.405 28.449 82.1444 28.7159C81.8839 28.9828 81.5307 29.1329 81.1623 29.1334Z" fill="#3E65F2"/>
<path d="M66.9568 19.8005C68.6623 19.8005 70.045 18.3841 70.045 16.6368C70.045 14.8896 68.6623 13.4731 66.9568 13.4731C65.2513 13.4731 63.8687 14.8896 63.8687 16.6368C63.8687 18.3841 65.2513 19.8005 66.9568 19.8005Z" fill="#3E65F2"/>
<path d="M66.9568 18.5638C67.9956 18.5638 68.8378 17.7011 68.8378 16.6368C68.8378 15.5726 67.9956 14.7098 66.9568 14.7098C65.9179 14.7098 65.0758 15.5726 65.0758 16.6368C65.0758 17.7011 65.9179 18.5638 66.9568 18.5638Z" fill="white"/>
</g>
<defs>
<clipPath id="clip0_188_2">
<rect width="100" height="100" fill="white"/>
</clipPath>
</defs>
</svg>
